<svg width="34" height="42" viewBox="0 0 34 42" fill="none" xmlns="http://www.w3.org/2000/svg">
<path fill-rule="evenodd" clip-rule="evenodd" d="M19.1505 1.14226C19.1505 0.511453 19.6619 0 20.2928 0H32.8577C33.4886 0 33.9999 0.511453 33.9999 1.14226V39.9792C33.9999 40.6101 33.4886 41.1215 32.8577 41.1215H28.2886V36.5525C28.2886 35.9216 27.7772 35.4102 27.1464 35.4102H26.0041C25.3732 35.4102 24.8618 35.9216 24.8618 36.5525V41.1215H20.2928C19.6619 41.1215 19.1505 40.6101 19.1505 39.9792V1.14226ZM32.8577 26.2721C32.8577 25.6413 32.3463 25.1298 31.7154 25.1298H21.435C20.8042 25.1298 20.2928 25.6413 20.2928 26.2721C20.2928 26.9029 20.8042 27.4143 21.435 27.4143H31.7154C32.3463 27.4143 32.8577 26.9029 32.8577 26.2721ZM31.7154 20.5608C32.3463 20.5608 32.8577 21.0722 32.8577 21.703C32.8577 22.3338 32.3463 22.8453 31.7154 22.8453H21.435C20.8042 22.8453 20.2928 22.3338 20.2928 21.703C20.2928 21.0722 20.8042 20.5608 21.435 20.5608H31.7154ZM32.8577 17.134C32.8577 16.5032 32.3463 15.9917 31.7154 15.9917H21.435C20.8042 15.9917 20.2928 16.5032 20.2928 17.134C20.2928 17.7648 20.8042 18.2762 21.435 18.2762H31.7154C32.3463 18.2762 32.8577 17.7648 32.8577 17.134ZM31.7154 11.4226C32.3463 11.4226 32.8577 11.9341 32.8577 12.5649C32.8577 13.1957 32.3463 13.7072 31.7154 13.7072H21.435C20.8042 13.7072 20.2928 13.1957 20.2928 12.5649C20.2928 11.9341 20.8042 11.4226 21.435 11.4226H31.7154ZM32.8577 7.99585C32.8577 7.36504 32.3463 6.85359 31.7154 6.85359H21.435C20.8042 6.85359 20.2928 7.36504 20.2928 7.99585C20.2928 8.62666 20.8042 9.13811 21.435 9.13811H31.7154C32.3463 9.13811 32.8577 8.62666 32.8577 7.99585Z" fill="#D5E7F3"/>
<path fill-rule="evenodd" clip-rule="evenodd" d="M2.01653 29.6989C1.38565 29.6989 0.874268 30.2103 0.874268 30.8411V39.9792C0.874268 40.61 1.38565 41.1215 2.01653 41.1215H6.58559V37.6947C6.58559 37.0639 7.09697 36.5524 7.72785 36.5524H8.87012C9.501 36.5524 10.0124 37.0639 10.0124 37.6947V41.1215H14.5814C15.2123 41.1215 15.7237 40.61 15.7237 39.9792V30.8411C15.7237 30.2103 15.2123 29.6989 14.5814 29.6989H2.01653Z" fill="#D5E7F3"/>
<path d="M8.31967 25.9762C8.66332 25.8044 9.07032 25.8168 9.40282 26.0093L16.0412 29.8526C17.052 30.4378 16.6368 31.9834 15.4689 31.9834H1.14398C-0.0613699 31.9834 -0.444955 30.3585 0.633138 29.8194L8.31967 25.9762Z" fill="#D5E7F3"/>
</svg>
