<svg width="24" height="18" viewBox="0 0 24 18" fill="none" xmlns="http://www.w3.org/2000/svg">
<circle cx="6.26278" cy="14.545" r="1.70834" stroke="white" stroke-opacity="0.8" stroke-width="1.5"/>
<circle cx="18.305" cy="14.545" r="1.70834" stroke="white" stroke-opacity="0.8" stroke-width="1.5"/>
<mask id="path-3-inside-1_1667_22560" fill="white">
<path fill-rule="evenodd" clip-rule="evenodd" d="M3.39844 0.75C1.87966 0.75 0.648438 1.98122 0.648438 3.5V12.658C0.648438 14.1767 1.87965 15.408 3.39844 15.408H4.58669V13.908H3.39844C2.70808 13.908 2.14844 13.3483 2.14844 12.658V3.5C2.14844 2.80965 2.70808 2.25 3.39844 2.25H10.7968C11.4872 2.25 12.0468 2.80964 12.0468 3.5V8.06627C12.0468 8.96635 12.7765 9.69601 13.6766 9.69601C14.5766 9.69601 15.3063 8.96635 15.3063 8.06627V5.57876C15.3063 5.44069 15.4182 5.32876 15.5563 5.32876H19.2024C19.6596 5.32876 20.0803 5.57833 20.2994 5.97954L21.6984 8.54059C21.7988 8.72437 21.8514 8.93042 21.8514 9.13982V12.658C21.8514 13.3483 21.2917 13.908 20.6014 13.908H20.3889V15.408H20.6014C22.1202 15.408 23.3514 14.1767 23.3514 12.658V9.13982C23.3514 8.67913 23.2356 8.22582 23.0148 7.82152L21.6158 5.26046C21.1337 4.37781 20.2082 3.82876 19.2024 3.82876H15.5563C14.5898 3.82876 13.8063 4.61226 13.8063 5.57876V8.06627C13.8063 8.13793 13.7482 8.19601 13.6766 8.19601C13.6049 8.19601 13.5468 8.13793 13.5468 8.06627V3.5C13.5468 1.98122 12.3156 0.75 10.7968 0.75H3.39844ZM8.17348 15.408H16.5427V13.908H8.17348V15.408ZM17.1443 5.75775C16.592 5.75775 16.1443 6.20547 16.1443 6.75775V7.96865C16.1443 8.52094 16.592 8.96865 17.1443 8.96865H19.3138C20.0559 8.96865 20.5395 8.1887 20.2095 7.52397L19.6083 6.31307C19.4394 5.9729 19.0924 5.75775 18.7126 5.75775H17.1443Z"/>
</mask>
<path d="M4.58669 15.408V16.908H6.08669V15.408H4.58669ZM4.58669 13.908H6.08669V12.408H4.58669V13.908ZM20.2994 5.97954L18.983 6.69861V6.69861L20.2994 5.97954ZM21.6984 8.54059L23.0148 7.82152L21.6984 8.54059ZM20.3889 13.908V12.408H18.8889V13.908H20.3889ZM20.3889 15.408H18.8889V16.908H20.3889V15.408ZM23.0148 7.82152L21.6984 8.54059L23.0148 7.82152ZM21.6158 5.26046L20.2994 5.97954V5.97954L21.6158 5.26046ZM16.5427 15.408V16.908H18.0427V15.408H16.5427ZM8.17348 15.408H6.67348V16.908H8.17348V15.408ZM16.5427 13.908H18.0427V12.408H16.5427V13.908ZM8.17348 13.908V12.408H6.67348V13.908H8.17348ZM20.2095 7.52397L18.8659 8.191L20.2095 7.52397ZM19.6083 6.31307L18.2647 6.98009V6.9801L19.6083 6.31307ZM2.14844 3.5C2.14844 2.80965 2.70808 2.25 3.39844 2.25V-0.75C1.05123 -0.75 -0.851562 1.15279 -0.851562 3.5H2.14844ZM2.14844 12.658V3.5H-0.851562V12.658H2.14844ZM3.39844 13.908C2.70808 13.908 2.14844 13.3483 2.14844 12.658H-0.851562C-0.851562 15.0052 1.05123 16.908 3.39844 16.908V13.908ZM4.58669 13.908H3.39844V16.908H4.58669V13.908ZM3.08669 13.908V15.408H6.08669V13.908H3.08669ZM3.39844 15.408H4.58669V12.408H3.39844V15.408ZM0.648438 12.658C0.648438 14.1767 1.87966 15.408 3.39844 15.408V12.408C3.53651 12.408 3.64844 12.5199 3.64844 12.658H0.648438ZM0.648438 3.5V12.658H3.64844V3.5H0.648438ZM3.39844 0.75C1.87966 0.75 0.648438 1.98122 0.648438 3.5H3.64844C3.64844 3.63807 3.53651 3.75 3.39844 3.75V0.75ZM10.7968 0.75H3.39844V3.75H10.7968V0.75ZM13.5468 3.5C13.5468 1.98122 12.3156 0.75 10.7968 0.75V3.75C10.6588 3.75 10.5468 3.63807 10.5468 3.5H13.5468ZM13.5468 8.06627V3.5H10.5468V8.06627H13.5468ZM13.6766 8.19601C13.6049 8.19601 13.5468 8.13792 13.5468 8.06627H10.5468C10.5468 9.79478 11.9481 11.196 13.6766 11.196V8.19601ZM13.8063 8.06627C13.8063 8.13792 13.7482 8.19601 13.6766 8.19601V11.196C15.4051 11.196 16.8063 9.79478 16.8063 8.06627H13.8063ZM13.8063 5.57876V8.06627H16.8063V5.57876H13.8063ZM15.5563 3.82876C14.5898 3.82876 13.8063 4.61227 13.8063 5.57876H16.8063C16.8063 6.26912 16.2467 6.82876 15.5563 6.82876V3.82876ZM19.2024 3.82876H15.5563V6.82876H19.2024V3.82876ZM21.6158 5.26046C21.1337 4.37781 20.2082 3.82876 19.2024 3.82876V6.82876C19.111 6.82876 19.0268 6.77885 18.983 6.69861L21.6158 5.26046ZM23.0148 7.82152L21.6158 5.26046L18.983 6.69861L20.382 9.25967L23.0148 7.82152ZM23.3514 9.13982C23.3514 8.67914 23.2356 8.22583 23.0148 7.82152L20.382 9.25967C20.3619 9.22291 20.3514 9.1817 20.3514 9.13982H23.3514ZM23.3514 12.658V9.13982H20.3514V12.658H23.3514ZM20.6014 15.408C22.1202 15.408 23.3514 14.1767 23.3514 12.658H20.3514C20.3514 12.5199 20.4633 12.408 20.6014 12.408V15.408ZM20.3889 15.408H20.6014V12.408H20.3889V15.408ZM21.8889 15.408V13.908H18.8889V15.408H21.8889ZM20.6014 13.908H20.3889V16.908H20.6014V13.908ZM21.8514 12.658C21.8514 13.3483 21.2917 13.908 20.6014 13.908V16.908C22.9486 16.908 24.8514 15.0052 24.8514 12.658H21.8514ZM21.8514 9.13982V12.658H24.8514V9.13982H21.8514ZM21.6984 8.54059C21.7988 8.72437 21.8514 8.93041 21.8514 9.13982H24.8514C24.8514 8.42785 24.6725 7.72728 24.3312 7.10244L21.6984 8.54059ZM20.2994 5.97954L21.6984 8.54059L24.3312 7.10244L22.9322 4.54138L20.2994 5.97954ZM19.2024 5.32876C19.6596 5.32876 20.0803 5.57833 20.2994 5.97954L22.9322 4.54138C22.1871 3.17729 20.7568 2.32876 19.2024 2.32876V5.32876ZM15.5563 5.32876H19.2024V2.32876H15.5563V5.32876ZM15.3063 5.57876C15.3063 5.44069 15.4182 5.32876 15.5563 5.32876V2.32876C13.7614 2.32876 12.3063 3.78384 12.3063 5.57876H15.3063ZM15.3063 8.06627V5.57876H12.3063V8.06627H15.3063ZM13.6766 9.69601C14.5766 9.69601 15.3063 8.96636 15.3063 8.06627H12.3063C12.3063 7.30949 12.9198 6.69601 13.6766 6.69601V9.69601ZM12.0468 8.06627C12.0468 8.96636 12.7765 9.69601 13.6766 9.69601V6.69601C14.4333 6.69601 15.0468 7.30949 15.0468 8.06627H12.0468ZM12.0468 3.5V8.06627H15.0468V3.5H12.0468ZM10.7968 2.25C11.4872 2.25 12.0468 2.80964 12.0468 3.5H15.0468C15.0468 1.15279 13.144 -0.75 10.7968 -0.75V2.25ZM3.39844 2.25H10.7968V-0.75H3.39844V2.25ZM16.5427 13.908H8.17348V16.908H16.5427V13.908ZM15.0427 13.908V15.408H18.0427V13.908H15.0427ZM8.17348 15.408H16.5427V12.408H8.17348V15.408ZM9.67348 15.408V13.908H6.67348V15.408H9.67348ZM17.6443 6.75775C17.6443 7.0339 17.4205 7.25775 17.1443 7.25775V4.25775C15.7636 4.25775 14.6443 5.37704 14.6443 6.75775H17.6443ZM17.6443 7.96865V6.75775H14.6443V7.96865H17.6443ZM17.1443 7.46865C17.4205 7.46865 17.6443 7.69251 17.6443 7.96865H14.6443C14.6443 9.34937 15.7636 10.4687 17.1443 10.4687V7.46865ZM19.3138 7.46865H17.1443V10.4687H19.3138V7.46865ZM18.8659 8.191C18.7009 7.85863 18.9427 7.46865 19.3138 7.46865V10.4687C21.1691 10.4687 22.378 8.51877 21.553 6.85694L18.8659 8.191ZM18.2647 6.9801L18.8659 8.191L21.553 6.85694L20.9518 5.64604L18.2647 6.9801ZM18.7126 7.25775C18.5227 7.25775 18.3492 7.15018 18.2647 6.98009L20.9518 5.64604C20.5296 4.79561 19.6621 4.25775 18.7126 4.25775V7.25775ZM17.1443 7.25775H18.7126V4.25775H17.1443V7.25775Z" fill="white" fill-opacity="0.8" mask="url(#path-3-inside-1_1667_22560)"/>
</svg>
