<svg width="129" height="55" viewBox="0 0 129 55" fill="none" xmlns="http://www.w3.org/2000/svg">
<path d="M99.5611 11.9309C99.5611 12.8159 99.5611 13.6748 99.5611 14.6119C100.056 14.0913 100.498 13.5967 100.967 13.1543C103.049 11.2021 105.912 10.7075 108.333 11.8268C109.712 12.4515 110.649 13.5187 111.404 14.8201C111.482 14.9763 111.587 15.1325 111.665 15.2886C112.159 14.716 112.628 14.0913 113.122 13.5447C115.413 11.098 118.823 10.5253 121.582 12.1651C123.248 13.1543 124.211 14.69 124.835 16.4599C125.356 17.9696 125.512 19.5314 125.512 21.1191C125.538 27.1318 125.564 33.1446 125.564 39.1573C125.564 41.0574 124.08 42.515 122.18 42.515C121.087 42.515 119.994 42.515 118.849 42.515C118.849 42.3068 118.849 42.1506 118.849 41.9944C118.849 36.19 118.875 30.3855 118.823 24.581C118.823 23.1234 118.692 21.6657 118.458 20.2081C118.224 18.7245 117.001 17.9696 115.751 18.4381C115.231 18.6204 114.762 18.9848 114.372 19.3752C113.591 20.2081 113.252 21.2753 113.122 22.3946C112.94 23.9303 112.81 25.466 112.784 27.0277C112.732 32.0253 112.758 36.9969 112.758 41.9944C112.758 42.1506 112.758 42.3068 112.758 42.489C110.519 42.489 108.333 42.489 106.068 42.489C106.068 42.3068 106.068 42.1506 106.068 41.9684C106.068 36.19 106.068 30.4115 106.068 24.6331C106.068 23.3837 105.964 22.1343 105.886 20.8588C105.86 20.5205 105.782 20.2081 105.678 19.8958C105.183 18.334 103.778 17.8135 102.346 18.6724C101.227 19.3492 100.628 20.3903 100.446 21.6137C100.212 23.1494 100.03 24.7372 100.004 26.2989C99.9515 31.5308 99.9776 36.7366 99.9776 41.9684C99.9776 42.1246 99.9776 42.2808 99.9776 42.489C97.713 42.489 95.5266 42.489 93.2881 42.489C93.2881 32.3116 93.2881 22.1343 93.2881 11.9309C95.3704 11.9309 97.4267 11.9309 99.5611 11.9309Z" fill="white"/>
<path d="M0 28.2249C1.40557 28.0687 2.73305 27.8084 4.08656 27.7564C5.62227 27.6783 6.8977 28.7194 7.34019 30.2031C7.54842 30.9059 7.78269 31.6087 8.09503 32.2594C9.05811 34.3157 10.724 35.2527 12.9885 35.2007C16.4243 35.1226 18.6368 32.1553 17.7778 28.8236C17.4915 27.7303 16.7627 27.0015 15.7736 26.5851C14.1858 25.9083 12.546 25.3617 10.9582 24.711C9.73486 24.2164 8.53753 23.7479 7.36622 23.1492C4.55508 21.7437 2.73305 19.4531 1.82203 16.5118C0.676755 12.8678 0.83293 9.24972 2.47276 5.78786C4.16465 2.19585 7.13196 0.399846 11.0103 0.0614683C12.8844 -0.094706 14.7324 0.0354392 16.5545 0.582049C19.5218 1.49307 21.5 3.52333 22.7494 6.33447C23.7385 8.52091 24.0769 10.8635 24.1029 13.2322C24.1029 13.2842 24.0769 13.3103 24.0769 13.4144C21.7863 13.5445 19.4958 13.7007 17.2312 13.8308C17.049 12.9458 16.8929 12.0869 16.6846 11.254C16.6065 10.8896 16.4504 10.5512 16.2942 10.2128C15.7736 8.98943 14.8626 8.28665 13.5611 8.05239C12.3898 7.84415 11.2185 7.84415 10.0993 8.28665C8.90193 8.75517 8.04298 9.51001 7.8868 10.8896C7.73063 12.3211 8.17312 13.4925 9.47458 14.1692C10.75 14.8199 12.0775 15.3665 13.405 15.9132C15.0968 16.6159 16.8668 17.2146 18.5327 17.9955C21.6301 19.4531 23.5303 21.9779 24.3372 25.2316C25.3263 29.1619 25.1961 33.0663 23.5042 36.8145C21.9165 40.3544 19.1834 42.4368 15.3571 43.0354C13.3269 43.3478 11.3226 43.3478 9.3184 42.8793C6.74152 42.2806 4.6592 40.901 3.14952 38.7146C0.989104 35.5651 0.338378 31.9731 0 28.2249Z" fill="white"/>
<path d="M70.5388 11.9049C70.0703 13.7009 69.6278 15.4449 69.1593 17.1628C67.3893 23.9304 65.5933 30.7239 63.7973 37.4915C62.8863 40.9534 61.9492 44.4152 60.9601 47.8771C60.6738 48.8662 60.2313 49.8293 59.7628 50.7403C58.4353 53.2391 56.2228 54.3583 53.4638 54.4624C52.9171 54.4885 52.3705 54.4885 51.85 54.3843C50.3663 54.1241 49.2991 52.9267 49.169 51.417C49.0388 49.8293 48.9087 48.2675 48.7785 46.6017C49.0128 46.6537 49.221 46.7058 49.4032 46.7578C50.2362 46.888 51.0951 47.0702 51.928 47.1222C52.8651 47.1743 53.6199 46.7318 54.1145 45.9249C54.8173 44.7796 55.2077 43.5302 55.468 42.2288C55.494 42.0726 55.468 41.8644 55.4159 41.7082C53.4117 34.3159 51.3814 26.8977 49.3772 19.5054C48.7265 17.0847 48.0757 14.69 47.425 12.2693C47.399 12.1652 47.373 12.0611 47.3469 11.931C49.7156 11.931 52.0582 11.931 54.4529 11.931C55.9886 18.23 57.4983 24.529 59.034 30.8281C59.06 30.8281 59.086 30.8281 59.1121 30.8281C59.1901 30.4636 59.2943 30.1253 59.3723 29.7609C60.7519 23.9564 62.1054 18.1519 63.4589 12.3474C63.537 12.0091 63.6671 11.8789 64.0576 11.8789C66.0618 11.9049 68.0661 11.8789 70.0703 11.8789C70.2004 11.9049 70.3306 11.9049 70.5388 11.9049Z" fill="white"/>
<path d="M91.8825 11.9568C91.8825 22.1341 91.8825 32.3115 91.8825 42.5149C91.5441 42.5149 91.2057 42.5149 90.8934 42.5149C90.0865 42.4889 89.2536 42.5409 88.4467 42.4628C87.0151 42.2806 85.9999 41.2915 85.6616 39.886C85.6355 39.8079 85.6095 39.7038 85.6095 39.7038C84.8546 40.3805 84.1519 41.1614 83.345 41.76C80.664 43.7122 77.4103 43.6602 74.9116 41.708C73.3758 40.4846 72.5429 38.8188 72.1004 36.9447C71.71 35.2528 71.5798 33.5088 71.5538 31.7649C71.5278 25.3097 71.5538 18.8285 71.5538 12.3733C71.5538 12.2431 71.5538 12.139 71.5538 11.9828C73.7923 11.9828 75.9787 11.9828 78.2433 11.9828C78.2433 12.139 78.2433 12.2952 78.2433 12.4513C78.2433 17.527 78.2172 22.6027 78.2433 27.6783C78.2433 29.5264 78.3734 31.3745 78.5036 33.2225C78.5296 33.7431 78.7378 34.2637 78.9721 34.7582C79.9091 36.6844 82.1476 36.4762 83.371 35.3048C84.5163 34.2116 84.9848 32.8061 85.0369 31.2703C85.1149 28.1469 85.193 24.9973 85.2191 21.8739C85.2451 18.7504 85.2191 15.6269 85.2191 12.5034C85.2191 12.3472 85.2191 12.191 85.2191 12.0088C87.4315 11.9568 89.644 11.9568 91.8825 11.9568Z" fill="white"/>
<path d="M40.0066 11.9306C42.2451 11.9306 44.4575 11.9306 46.67 11.9306C46.67 22.1079 46.67 32.2853 46.67 42.5668C45.4206 42.5147 44.1712 42.5928 42.9478 42.3846C41.6464 42.1763 40.8135 41.2393 40.4751 39.9378C40.4491 39.8337 40.423 39.7296 40.397 39.6515C39.7463 40.2762 39.1476 40.953 38.4448 41.4996C36.0241 43.4517 32.8746 43.686 30.4018 42.1763C28.5538 41.031 27.5126 39.3392 26.966 37.2829C26.5235 35.6691 26.3673 34.0292 26.3673 32.3634C26.3413 25.6739 26.3413 18.9844 26.3413 12.295C26.3413 12.1648 26.3413 12.0607 26.3673 11.9045C28.5798 11.9045 30.7923 11.9045 33.0308 11.9045C33.0308 12.0867 33.0308 12.2429 33.0308 12.3991C33.0308 17.2405 33.0047 22.1079 33.0308 26.9493C33.0568 29.0056 33.1609 31.088 33.2911 33.1442C33.3171 33.7169 33.5774 34.3156 33.8377 34.8101C34.6185 36.2417 36.4146 36.528 37.7681 35.4869C38.9394 34.6019 39.5901 33.4045 39.6942 31.9729C39.8504 30.1769 39.9545 28.3809 39.9545 26.611C39.9805 21.8737 39.9545 17.1624 39.9545 12.4251C40.0066 12.295 40.0066 12.1388 40.0066 11.9306Z" fill="white"/>
<path d="M123.378 8.33876C123.378 6.82908 124.601 5.60571 126.163 5.60571C127.751 5.60571 129 6.80305 129 8.33876C129 9.84845 127.751 11.0718 126.215 11.0718C124.653 11.1239 123.378 9.87448 123.378 8.33876ZM126.215 10.4992C127.386 10.4992 128.271 9.58816 128.297 8.39082C128.323 7.16746 127.386 6.17835 126.215 6.17835C125.044 6.17835 124.106 7.1154 124.106 8.33876C124.08 9.5361 124.991 10.4992 126.215 10.4992Z" fill="white"/>
<path d="M125.174 6.95908C125.642 6.95908 126.059 6.93305 126.501 6.95908C126.892 6.98511 127.23 7.11525 127.386 7.53172C127.516 7.94818 127.256 8.20847 127.022 8.33862C127.204 8.80714 127.36 9.24963 127.542 9.69213C126.866 9.8483 126.84 9.82227 126.684 9.24963C126.553 8.70302 126.423 8.62494 125.773 8.70302C125.773 9.0414 125.773 9.37978 125.773 9.74419C125.564 9.74419 125.382 9.74419 125.174 9.74419C125.174 8.8592 125.174 7.97421 125.174 6.95908ZM125.694 8.2345C126.137 8.26053 126.501 8.31259 126.684 7.97421C126.736 7.8701 126.684 7.58378 126.605 7.55775C126.371 7.45363 126.007 7.34951 125.903 7.45363C125.746 7.6098 125.772 7.94818 125.694 8.2345Z" fill="white"/>
</svg>
